# xmcd
#
# Track frame offsets: 
#        150
#        12815
#        29365
#        36085
#        58732
#        75336
#        96764
#        109277
#        128468
#        140878
#        157755
#        179867
#        198904
#        212147
#        244485
#        263394
#        294969
#        304381
#        318014
#
# Disc length: 4443 seconds
#
# Revision: 0
# Processed by: cddbd v1.5.2PL0 Copyright (c) Steve Scherf et al.
# Submitted via: ExactAudioCopyFreeDBPlugin 1.0
#
DISCID=04115913
DTITLE=Lightnin' Hopkins - The Acoustic Years Disc 2
DYEAR=1900
DGENRE=Blues
TTITLE0=That Mean Old Twister (Backwater Blues)
TTITLE1=Gonna Pull A Party
TTITLE2=Bluebird Bluebird
TTITLE3=Get Off My Toe
TTITLE4=Short Haired Woman
TTITLE5=Mama And Papa Hopkins
TTITLE6=When The Saints Go Marching In
TTITLE7=In the Evening When the Sun Goes Down
TTITLE8=The Foot Race Is ON
TTITLE9=Bottle Up And Go
TTITLE10=That Gambling Life
TTITLE11=75 Highway
TTITLE12=Trouble In Mind
TTITLE13=First Meeting
TTITLE14=How Long Have It Been Since You Been Home
TTITLE15=Big Black Cadillac Blues
TTITLE16=Coffee House Blues
TTITLE17=Stool Pigeon Blues
TTITLE18=Ball of Twine
EXTD=
EXTT0=
EXTT1=
EXTT2=
EXTT3=
EXTT4=
EXTT5=
EXTT6=
EXTT7=
EXTT8=
EXTT9=
EXTT10=
EXTT11=
EXTT12=
EXTT13=
EXTT14=
EXTT15=
EXTT16=
EXTT17=
EXTT18=
PLAYORDER=
